<svg xmlns="http://www.w3.org/2000/svg" xmlns:xlink="http://www.w3.org/1999/xlink" width="160" height="237" viewBox="0 0 160 237">
    <defs>
        <path id="a" d="M0 0h193v237H0z"/>
        <path id="c" d="M0 .19h100.226v102.79H.001z"/>
    </defs>
    <g fill="none" fill-rule="evenodd">
        <mask id="b" fill="#fff">
            <use xlink:href="#a"/>
        </mask>
        <g mask="url(#b)">
            <path fill="#725048" d="M69.276 105.391c-.83-4.944-1.67-6.666-6.721-4.42-5.095 2.264-10.87 3.199-15.61 6.223-4.737 3.024-7.395 9.173-9.94 14.106-5.916 11.465-9.599 24.47-17.714 34.717-3.89 4.91-6.938 8.299-.794 12.484 5.31 3.616 11.196 5.464 15.608 10.392 2.679 2.993 3.655 5.678 7.581 3.02 2.525-1.708 3.907-4.98 6.128-7.038 2.73-2.53 4.982-4.573 8.278-6.425 8.147-4.58 15.83-11.423 20.192-19.528 4.487-8.335 5.465-18.004-.174-27.919-3.442-6.05-5.688-8.775-6.834-15.612"/>
            <path fill="#9CAAC1" d="M99.51 145.482l-.02.034c-.001.005.006-.009.02-.034"/>
            <path fill="#F4F4F4" d="M159.23 177.528c-3.49 2.805-88.324 3.473-91.062.695-3.012-3.056-13.701-154.555-11.982-156.298 2.583-2.62 91.405-6.6 94.144-4.168 3.933 3.491 12.226 157.1 8.9 159.771"/>
            <g transform="translate(-48 152)">
                <mask id="d" fill="#fff">
                    <use xlink:href="#c"/>
                </mask>
                <path fill="#BBE0D1" d="M100.008 29.017C99.376 27.636 65.174.953 60.734.23c-2.95-.482-6.442 3.475-7.974 4.809C51.03 6.544 4.44 64.423.263 69.243c-3.908 3.114 37.016 27.512 47.14 33.738 3.442-4.506 50.47-68.643 51.533-70.071 1.243-1.673 1.559-2.83 1.072-3.893" mask="url(#d)"/>
            </g>
            <path fill="#725048" d="M86.023 120.329c-9.2 3.035-11.345 14.692-22.944 14.018-2.06-.12-4.778-1.531-6.48-2.636-2.047-1.33-2.344-3.606-3.218-5.708.357.859-1.99 4.831-2.4 5.745-.695 1.546-1.444 2.945-2.584 4.217-2.11 2.353-3.691 4.136-4.533 7.31-1.58 5.97-1.257 13.81 3.203 18.56 6.598 7.029 14.332 4.286 20.393-1.757 1.385-1.38 2.48-2.943 3.45-4.584 2.101-3.556 3.69-7.52 6.005-10.928 3.55-5.225 9.48-10.192 11.758-16.023 1.229-3.147 3.175-10.135-2.65-8.214"/>
            <path fill="#62352E" d="M87.718 128.346c-.39-.428-.542-.588-.66-.778-.724 1.225-2.376 1.49-3.679.778-1.67-.913-.873-2.594.097-3.736l-.25-.094a9.718 9.718 0 0 1-1.003-.516c-.691.82-1.204 1.756-1.223 2.807-.02 1.062.643 1.976 1.585 2.569 1.722 1.085 4.22.712 5.415-.782a1.862 1.862 0 0 1-.282-.248"/>
            <path fill="#6CBBBB" d="M55.667 74.489c.017-.039.031-.091.05-.127l-.434.276c.116-.054.247-.102.384-.149"/>
            <path fill="#6CBBBB" d="M55.645 74.406a1.074 1.074 0 0 0-.29.188l.29-.188z"/>
            <path fill="#50BE87" d="M5.561 165.109c-.41-.219-1.009-.102-1.237.294-.073.128-.155.25-.245.37-.109.147-.09.115-.216.25-.189.203-.395.393-.602.58a.774.774 0 0 0 0 1.16.98.98 0 0 0 1.278 0c.506-.46 1.012-.952 1.346-1.532a.79.79 0 0 0-.324-1.122M11.71 158.29a1.012 1.012 0 0 0-1.417 0l-1.003 1.003a1.012 1.012 0 0 0 0 1.418 1.013 1.013 0 0 0 1.418 0l1.003-1.003a1.013 1.013 0 0 0 0-1.418M9.711 170.29c-.38-.38-1.036-.392-1.416 0-.193.2-.355.428-.522.65l-.014.02c-.033.039-.067.076-.1.113-.381.144-.659.477-.659.925 0 .516.456 1.038 1.001 1 .464-.032.833-.235 1.138-.582.146-.165.274-.345.407-.522.004-.007.01-.013.014-.018a1.011 1.011 0 0 0 .151-1.586M6.711 182.29c-.38-.38-1.037-.393-1.416 0-.194.2-.356.428-.522.65l-.015.019c-.032.04-.066.076-.1.113-.38.145-.658.479-.658.926 0 .516.456 1.038 1.001 1 .464-.032.833-.235 1.137-.582.147-.165.275-.346.408-.523l.014-.017.009-.011a2.37 2.37 0 0 1 .142-.16 1.01 1.01 0 0 0 0-1.415M14.71 161.325a.932.932 0 0 0-1.415 0c-.122.137-.244.271-.373.399l-.059.042c-.481.094-.863.523-.863 1.106 0 .59.455 1.16 1.001 1.127.718-.045 1.223-.535 1.71-1.081.386-.434.386-1.158 0-1.593M11.513 176.119c-.453-.238-1.125-.113-1.375.324-.074.13-.153.258-.24.382-.024.036-.177.221-.18.23-.134.143-.28.277-.428.408a.847.847 0 0 0 0 1.276c.388.348 1.035.348 1.421 0 .46-.413.865-.864 1.163-1.385.249-.438.13-.976-.361-1.235M16.562 170.12c-.407-.24-1.013-.115-1.237.324a4.16 4.16 0 0 1-.204.36c-.01.016-.036.05-.056.077l-.068.075a1.823 1.823 0 0 1-.13.121v.001l-.01.007c-.13.092-.272.168-.414.24-.438.224-.562.83-.323 1.237.259.443.797.548 1.236.324a3.415 3.415 0 0 0 1.53-1.53c.224-.439.119-.977-.324-1.237M21.71 163.325a.933.933 0 0 0-1.416 0 8.34 8.34 0 0 1-.372.399l-.059.042c-.481.094-.863.523-.863 1.106 0 .59.455 1.16 1 1.127.718-.045 1.224-.535 1.71-1.081.387-.434.386-1.16 0-1.593M16.514 179.132c-.451-.264-1.125-.127-1.373.36-.066.13-.137.258-.215.383l-.057.084c-.014.015-.027.032-.037.044l-.018.018c-.459.098-.814.484-.814.977 0 .531.457 1.021 1.004 1.001.906-.032 1.488-.75 1.87-1.497.248-.487.131-1.082-.36-1.37M4.513 195.132c-.45-.264-1.124-.127-1.372.36-.066.13-.137.258-.215.382-.018.03-.039.057-.058.085l-.036.044-.02.018c-.457.099-.812.483-.812.977 0 .532.457 1.022 1.004 1.001.906-.031 1.488-.749 1.87-1.496.248-.487.131-1.083-.36-1.371M23.562 172.132a.86.86 0 0 0-1.235.36 4.74 4.74 0 0 1-.17.336c-.008.016-.029.047-.046.074l-.059.066-.015.01-.018.005c-.03.005-.087.014-.117.014-.49.01-.902.448-.902 1.001 0 .539.41 1.012.902 1.002.93-.02 1.575-.606 1.985-1.497.223-.487.117-1.083-.325-1.371M27.674 167.326a1.138 1.138 0 0 0-1.596 0l-.752.753a1.137 1.137 0 0 0 0 1.595c.435.435 1.16.435 1.595 0l.753-.752a1.138 1.138 0 0 0 0-1.596M22.71 183.29a1.013 1.013 0 0 0-1.418 0l-1.002 1.002a1.013 1.013 0 0 0 0 1.418 1.012 1.012 0 0 0 1.418 0l1.002-1.003a1.013 1.013 0 0 0 0-1.418M19.71 196.29a1.012 1.012 0 0 0-1.418 0c-.334.334-.669.668-1.002 1.003a1.011 1.011 0 0 0 0 1.417 1.012 1.012 0 0 0 1.418 0l1.002-1.003a1.012 1.012 0 0 0 0-1.417M28.6 174.109c-.372-.219-.916-.102-1.123.294-.25.479-.596.825-1.074 1.074-.397.208-.512.752-.295 1.125.234.398.727.5 1.124.293a4.03 4.03 0 0 0 1.663-1.662c.208-.397.105-.89-.295-1.124M4.6 217.109c-.372-.219-.916-.102-1.123.294-.25.479-.596.825-1.074 1.074-.397.208-.512.752-.295 1.125.234.398.727.5 1.124.293a4.03 4.03 0 0 0 1.663-1.662c.208-.397.105-.89-.295-1.124M.601 233.108c-.373-.218-.917-.1-1.124.295-.25.479-.596.825-1.074 1.074-.396.208-.512.752-.295 1.125.234.398.727.5 1.124.293a4.033 4.033 0 0 0 1.663-1.662c.208-.397.105-.89-.294-1.125M.6 208.109c-.372-.219-.916-.102-1.123.295-.25.477-.596.824-1.074 1.074-.396.207-.512.75-.295 1.123.234.4.727.501 1.124.295a4.034 4.034 0 0 0 1.663-1.664c.208-.396.105-.889-.295-1.123M12.601 228.109c-.373-.219-.917-.102-1.124.294a2.44 2.44 0 0 1-1.074 1.074c-.396.208-.512.752-.294 1.125.234.398.726.5 1.123.293a4.03 4.03 0 0 0 1.663-1.662c.208-.397.105-.89-.294-1.124M10.6 219.109c-.372-.219-.916-.102-1.123.294-.25.479-.596.825-1.074 1.075-.397.207-.512.75-.295 1.123.234.4.727.501 1.124.295a4.032 4.032 0 0 0 1.663-1.664c.208-.396.105-.889-.295-1.123M25.74 188.29a.846.846 0 0 0-1.274 0c-.153.174-.28.374-.427.554-.039.048-.08.092-.121.134l-.009.006a.12.12 0 0 1-.023.015c-.484.029-.886.444-.886 1 0 .53.41 1.02.902 1 .507-.02.91-.235 1.286-.6.21-.203.36-.472.552-.694.341-.391.352-1.024 0-1.415M14.74 202.29a.844.844 0 0 0-1.274 0c-.153.175-.28.374-.427.554a1.804 1.804 0 0 1-.13.141.172.172 0 0 1-.023.014c-.484.03-.886.445-.886 1 0 .53.41 1.02.902 1 .507-.02.909-.235 1.286-.6.21-.203.36-.472.552-.693.341-.392.352-1.025 0-1.416M10.74 209.29a.845.845 0 0 0-1.274 0c-.153.174-.28.374-.427.554-.039.048-.08.092-.121.134l-.009.006a.12.12 0 0 1-.023.015c-.484.028-.886.444-.886 1 0 .53.41 1.02.902 1 .507-.02.91-.235 1.286-.6.21-.204.36-.472.552-.694.341-.391.352-1.024 0-1.415M22.74 214.29a.845.845 0 0 0-1.274 0c-.153.174-.28.374-.427.554-.039.048-.08.092-.121.135l-.009.005a.12.12 0 0 1-.023.015c-.484.028-.886.444-.886 1 0 .53.41 1.02.902 1 .507-.02.91-.235 1.286-.6.21-.204.36-.472.552-.694.341-.391.352-1.024 0-1.415M18.74 209.29a.844.844 0 0 0-1.274 0c-.153.175-.28.374-.427.554a1.804 1.804 0 0 1-.13.141.129.129 0 0 1-.023.014c-.484.03-.886.445-.886 1 0 .53.41 1.02.902 1 .507-.02.909-.235 1.286-.6.21-.204.36-.472.552-.693.341-.392.352-1.025 0-1.416M14.74 215.29a.845.845 0 0 0-1.274 0c-.152.175-.28.374-.427.555-.038.047-.08.09-.121.134l-.01.006c-.005.005-.014.01-.022.014-.484.029-.886.445-.886 1 0 .53.41 1.02.902 1 .507-.02.91-.235 1.286-.6.21-.203.36-.472.552-.693.341-.393.352-1.025 0-1.416M18.74 222.29a.845.845 0 0 0-1.274 0c-.153.175-.28.374-.427.555-.039.047-.08.09-.121.134l-.009.006a.172.172 0 0 1-.023.014c-.484.029-.886.445-.886 1 0 .53.41 1.02.902 1 .507-.02.91-.235 1.286-.6.21-.203.36-.472.552-.693.341-.393.352-1.025 0-1.416M31.6 182.133c-.374-.268-.911-.122-1.122.36-.013.031-.122.218-.122.23-.015.02-.031.038-.047.057.017-.026-.1.092-.117.103a1.203 1.203 0 0 0-.063.04 1.227 1.227 0 0 1-.085.036c-.027.01-.054.015-.082.023.028-.012-.117.015-.142.016-.447.012-.82.445-.82 1 0 .537.373 1.014.82 1.002.863-.024 1.662-.554 2.075-1.497.21-.482.102-1.087-.295-1.37M5.6 203.133c-.374-.268-.911-.121-1.122.36-.014.032-.122.218-.122.23-.015.02-.032.039-.047.057.017-.026-.1.092-.117.104-.035.022-.056.034-.063.04-.029.012-.057.025-.086.035-.026.01-.054.015-.08.023.027-.012-.119.016-.143.016-.447.012-.82.446-.82 1 0 .538.373 1.015.82 1.002.863-.024 1.662-.554 2.075-1.497.21-.481.102-1.086-.294-1.37M37.872 173c-.581 0-1.008.379-1.106.857-.026.037-.052.073-.055.08-.121.125-.255.242-.385.358a.932.932 0 0 0 0 1.415c.432.387 1.158.387 1.592 0 .546-.485 1.037-.99 1.08-1.709.034-.544-.538-1.001-1.126-1.001M31 193.9c0-.476-.455-.918-1-.9-1.273.043-1.978 1.032-2 2.1-.009.49.463.9 1 .9.553 0 .99-.41 1-.9 0-.04.003-.08.006-.119l.007-.035c.011-.042.024-.083.039-.124.003-.004.006-.008.009-.015l.006-.008.004-.004.006-.001h.009c.506-.053.914-.416.914-.894M9 234.9c0-.476-.455-.918-1-.9-1.273.043-1.978 1.032-2 2.1-.01.49.463.9 1 .9.553 0 .99-.41 1-.9 0-.04.002-.08.005-.119l.008-.035c.012-.042.024-.083.039-.124a.132.132 0 0 0 .009-.015l.005-.008.005-.004.006-.001h.008c.506-.053.915-.416.915-.894M13 194.9c0-.476-.455-.918-1-.9-1.273.043-1.978 1.032-2 2.1-.01.49.463.9 1 .9.553 0 .99-.41 1-.9 0-.04.003-.08.005-.12a1.816 1.816 0 0 1 .047-.159l.009-.014.006-.008.004-.004.006-.001h.009c.505-.053.914-.417.914-.894M34 201.9c0-.476-.455-.918-1-.9-1.274.043-1.979 1.032-2 2.1-.01.491.463.9 1 .9.553 0 .99-.41 1-.9 0-.04.002-.08.005-.119l.009-.035c.01-.041.024-.083.037-.123l.01-.015.006-.009a.012.012 0 0 0 .003-.004h.005c.004 0 .007 0 .01-.002.507-.052.915-.415.915-.893M29 206.9c0-.476-.455-.918-1-.9-1.273.043-1.978 1.032-2 2.1-.01.49.463.9 1 .9.553 0 .99-.41 1-.9 0-.04.002-.08.005-.12.003-.008.004-.02.008-.034.012-.042.024-.083.039-.124l.009-.015.005-.008c.002 0 .003-.003.005-.004l.003-.001h.011c.506-.053.915-.417.915-.894M19 187.9c0-.476-.455-.918-1-.9-1.273.043-1.979 1.032-2 2.1-.01.49.463.9 1 .9.553 0 .99-.41 1-.9 0-.04.002-.08.005-.119l.009-.035c.01-.041.024-.083.038-.124a.132.132 0 0 0 .01-.015c0-.003.003-.005.005-.008a.012.012 0 0 0 .003-.004l.007-.001h.009c.506-.053.914-.416.914-.894M5 172.9c0-.477-.455-.918-1-.9-1.273.043-1.978 1.032-2 2.1-.009.49.463.9 1 .9.553 0 .99-.41 1-.9 0-.04.003-.08.006-.12l.008-.034c.01-.042.023-.083.038-.124l.01-.015.005-.008.004-.005h.015c.506-.054.914-.417.914-.894M1 189.9c0-.477-.455-.918-1-.9-1.273.043-1.978 1.032-2 2.1-.01.49.463.9 1 .9.553 0 .99-.41 1-.9 0-.04.002-.08.005-.12l.008-.034c.012-.041.024-.083.039-.124l.009-.015.005-.008.005-.005h.006l.008-.001c.506-.052.915-.415.915-.893M1 165.9c0-.476-.455-.918-1-.9-1.273.043-1.978 1.032-2 2.1-.01.49.463.9 1 .9.553 0 .99-.41 1-.9 0-.04.002-.08.005-.119l.009-.035c.011-.042.024-.083.038-.124a.132.132 0 0 0 .01-.015c0-.003.003-.005.005-.008a.02.02 0 0 0 .003-.004l.007-.001h.009c.506-.053.914-.416.914-.894M7 158.9c0-.476-.455-.918-1-.9-1.273.043-1.978 1.032-2 2.1-.01.49.463.9 1 .9.553 0 .99-.41 1-.9 0-.04.002-.08.005-.119l.008-.035c.012-.042.024-.083.039-.124a.132.132 0 0 0 .009-.015l.006-.008.004-.004.006-.001h.008c.506-.053.915-.416.915-.894M34.71 189.29a1.012 1.012 0 0 0-1.417 0c-.335.334-.67.668-1.003 1.003a1.01 1.01 0 0 0 0 1.417 1.012 1.012 0 0 0 1.418 0l1.003-1.003a1.012 1.012 0 0 0 0-1.417M24.71 201.29a1.013 1.013 0 0 0-1.418 0l-1.002 1.002a1.013 1.013 0 0 0 0 1.418 1.012 1.012 0 0 0 1.418 0l1.002-1.003a1.013 1.013 0 0 0 0-1.418M5.71 225.29a1.013 1.013 0 0 0-1.418 0l-1.003 1.002a1.013 1.013 0 0 0 0 1.418 1.012 1.012 0 0 0 1.418 0l1.003-1.003a1.012 1.012 0 0 0 0-1.418M41.288 180.272c-.77.708-1.645 1.444-2.162 2.337-.604 1.049 1.125 1.98 1.732.93.437-.757 1.195-1.365 1.847-1.963.914-.842-.503-2.146-1.417-1.304M39.674 194.239c-.43-.316-1.164-.322-1.593 0-.39.294-.726.61-.918.997-.153.306-.163.642-.163.965-.002 1.066 2.252 1.065 2.253 0 .001-.093.001-.185.005-.277l.002-.022c.004-.02.014-.086.024-.114l.017-.038c.027-.037.057-.073.088-.11l.028-.03c.08-.07.17-.136.257-.202.43-.323.44-.848 0-1.169M44.282 183.533c-.62 1.364-1.549 2.505-2.17 3.87-.548 1.206 1.056 2.274 1.606 1.065.62-1.365 1.55-2.505 2.17-3.87.548-1.208-1.056-2.276-1.606-1.065M9.282 186.532c-.62 1.365-1.549 2.506-2.17 3.87-.548 1.207 1.056 2.276 1.606 1.066.62-1.365 1.549-2.506 2.17-3.87.548-1.208-1.056-2.276-1.606-1.066"/>
            <path fill="#FF7900" d="M77 40.035L63.965 41 63 27.966 76.035 27z"/>
            <path fill="#A7A3A0" d="M137 50.91L75.119 55 75 53.09 136.882 49zM137 55.91L75.119 60 75 58.09 136.882 54zM149 78.913L71.12 84 71 82.087 148.88 77zM149 84.913L71.12 90 71 88.087 148.88 83zM149 90.913L71.12 96 71 94.086 148.88 89zM149 105.913L71.12 111l-.12-1.914L148.88 104zM149 110.913L71.12 116l-.12-1.914L148.88 109zM154 145.914L76.12 151l-.12-1.914L153.88 144zM151 156.826L116.12 159l-.12-1.825L150.88 155z"/>
            <path fill="#D6D6D6" d="M21.185 33.21l9.28 4.529c2.676 1.305 5.037-2.638 2.35-3.95l-9.28-4.528c-2.676-1.305-5.038 2.638-2.35 3.95M17.556 62.701L28.3 64.952c2.71.568 3.871-4.082 1.145-4.654l-10.744-2.25c-2.71-.568-3.873 4.082-1.145 4.653M20.09 90.992l10.82-.822c2.775-.21 2.799-4.375 0-4.162l-10.82.821c-2.775.211-2.798 4.376 0 4.163M39.59 8.778l4.877 6.577c.696.94 2.213.776 2.942 0 .872-.928.699-2.19 0-3.134l-4.876-6.576c-.696-.94-2.213-.776-2.942 0-.872.928-.699 2.19 0 3.133"/>
            <path fill="#FFF" d="M72.114-1.888l1.467 4.082c.442 1.233 1.493 2.095 2.746 1.716 1.067-.323 2.005-1.782 1.56-3.022L76.42-3.194c-.443-1.233-1.494-2.095-2.747-1.716-1.067.323-2.005 1.782-1.56 3.022"/>
        </g>
    </g>
</svg>
